<!-- icon666.com - MILLIONS vector ICONS FREE --><svg id="svg8" viewBox="0 0 6.6145832 6.6145835" xmlns="http://www.w3.org/2000/svg" xmlns:svg="http://www.w3.org/2000/svg"><g id="layer35"><g id="g5853" transform="translate(-39.692 -79.374)"><path id="rect4986" d="m153.49805 302.99609c-.8225 0-1.49805.68532-1.49805 1.50782v2c0 .8225.67555 1.49804 1.49805 1.49804h2.00195c.8225 0 1.49805-.67554 1.49805-1.49804v-2c0-.8225-.67555-1.50782-1.49805-1.50782zm0 1.00586h2.00195c.28207 0 .50195.21988.50195.50196v2c0 .28206-.21987.49414-.50195.49414h-2.00195c-.28207 0-.50196-.21208-.50196-.49414v-2c0-.28207.21988-.50196.50196-.50196zm4.99804.9961a.5019685.5019685 0 0 0 0 1.0039h14.00391a.5019685.5019685 0 0 0 0-1.0039zm-4.99804 5.0039c-.8225.00001-1.49805.6775-1.49805 1.5v2c0 .8225.67555 1.49805 1.49805 1.49805h2.00195c.8225 0 1.49805-.67555 1.49805-1.49805v-2c0-.8225-.67555-1.49999-1.49805-1.5zm0 .9961h2.00195c.28207 0 .50195.22183.50195.5039v2c0 .28207-.21987.50196-.50195.50196h-2.00195c-.28207 0-.50196-.21988-.50196-.50196v-2c0-.28206.21988-.5039.50196-.5039zm19.00781 1.0039a.50004998.50004998 0 0 0 -.006.002h-14.00391a.50004998.50004998 0 0 0 -.043 0 .50004998.50004998 0 0 0 .043.99609h14.00405a.50004998.50004998 0 1 0 .006-.99805zm-19.00781 4.99805c-.8225 0-1.49805.67555-1.49805 1.49805v2.00195c0 .8225.67555 1.49805 1.49805 1.49805h2.00195c.8225 0 1.49805-.67555 1.49805-1.49805v-2.00195c0-.8225-.67555-1.49805-1.49805-1.49805zm0 .99609h2.00195c.28207 0 .50195.21988.50195.50196v2.00195c0 .28207-.21987.50195-.50195.50195h-2.00195c-.28207 0-.50196-.21987-.50196-.50195v-2.00195c0-.28207.21988-.50196.50196-.50196zm19.00781 1.00391a.50004998.50004998 0 0 0 -.006.002h-14.00391a.50004998.50004998 0 0 0 -.043 0 .50004998.50004998 0 0 0 .043.9961h14.00405a.50004998.50004998 0 1 0 .006-.9981z" transform="scale(.265)" font-variant-ligatures="normal" font-variant-position="normal" font-variant-caps="normal" font-variant-numeric="normal" font-variant-alternates="normal" font-feature-settings="normal" text-indent="0" text-align="start" text-decoration-line="none" text-decoration-style="solid" text-decoration-color="rgb(0,0,0)" text-transform="none" text-orientation="mixed" white-space="normal" shape-padding="0" isolation="auto" mix-blend-mode="normal" solid-color="rgb(0,0,0)" solid-opacity="1" vector-effect="none" paint-order="markers stroke fill"></path></g></g></svg>